<svg width="494" height="259" viewBox="0 0 494 259" fill="none" xmlns="http://www.w3.org/2000/svg">
<g clip-path="url(#clip0_10_2)">
<path d="M65.1053 241.266H117.284V245.306H65.1053V241.266Z" fill="white" stroke="#262626" stroke-width="0.577193" stroke-miterlimit="10"/>
<path d="M96.7362 221.18C96.7362 221.18 90.0408 227.067 81.3829 224.412C72.725 221.757 45.9432 213.099 45.9432 213.099L54.2548 205.711C54.2548 205.711 82.5372 205.711 96.0436 204.326L102.97 210.79L96.7362 221.18Z" fill="white" stroke="#262626" stroke-width="0.577193" stroke-miterlimit="10"/>
<path d="M62.3354 142.797C62.3354 142.797 55.1782 153.302 66.1449 167.732C77.1115 182.162 93.2729 201.786 93.2729 201.786C93.2729 201.786 101.354 214.485 96.7361 221.065L128.713 190.704L62.3354 142.797Z" fill="white" stroke="#262626" stroke-width="0.577193" stroke-miterlimit="10"/>
<path d="M179.391 135.409L245.652 210.56C245.652 210.56 266.431 234.802 258.351 248.655C250.27 262.507 232.031 259.275 219.794 253.965C207.558 248.655 62.3358 142.913 62.3358 142.913L181.815 40.6344L238.726 83.4621L179.391 135.409Z" fill="white" stroke="#262626" stroke-width="0.577193" stroke-miterlimit="10"/>
<path d="M145.566 107.936L119.939 92.6977L82.5369 125.598L106.894 144.53L145.566 107.936Z" fill="#FF6B00" stroke="#262626" stroke-width="0.577193" stroke-miterlimit="10"/>
<path d="M161.266 107.936L97.544 64.5308L58.872 98.5851L122.594 144.53L161.266 107.936Z" fill="white" stroke="#262626" stroke-width="0.577193" stroke-miterlimit="10"/>
<path d="M113.359 87.7333L99.2751 99.6235L137.139 130.561L161.958 107.127L113.359 87.7333Z" fill="#262626"/>
<path d="M233.3 240.575L125.595 153.88L149.838 129.754L233.3 240.575Z" fill="#262626"/>
<path d="M271.856 203.864L138.64 48.5993L99.8523 82.6537L233.299 240.574L271.856 203.864Z" fill="white" stroke="#262626" stroke-width="0.577193" stroke-miterlimit="10"/>
<path d="M181.815 86.2316L265.508 18.2382C267.24 36.1312 274.859 54.2551 274.859 54.2551L356.358 131.137L328.307 155.495L330.154 156.995C343.545 170.386 330.154 186.548 330.154 186.548L255.003 252.579C264.469 239.534 253.041 221.064 253.041 221.064L179.16 135.293C157.458 109.088 181.815 86.2316 181.815 86.2316Z" fill="white" stroke="#262626" stroke-width="0.577193" stroke-miterlimit="10"/>
<path d="M318.724 196.707C318.724 196.707 325.65 182.739 314.453 169.463C303.371 156.188 202.362 76.1891 202.362 76.1891L215.984 62.6827L330.383 157.112C330.383 157.112 341.581 168.194 333.269 182.046L330.383 186.664L318.724 196.707Z" fill="#FF6B00" stroke="#262626" stroke-width="0.577193" stroke-miterlimit="10"/>
<path d="M436.357 166.462C436.357 166.462 454.481 188.973 443.745 208.828C433.009 228.684 405.996 219.102 402.995 216.563C399.878 214.139 248.769 90.1575 248.769 90.1575C248.769 90.1575 238.149 79.6526 218.524 77.4592C195.898 74.9196 181.815 86.348 181.815 86.348L265.508 18.3547C265.508 18.3547 291.25 4.15571 322.881 24.1266C354.511 44.0975 447.092 118.094 447.092 118.094L425.736 148.569C425.736 148.569 430.469 156.766 436.357 166.462Z" fill="white" stroke="#262626" stroke-width="0.577193" stroke-miterlimit="10"/>
<mask id="mask0_10_2" style="mask-type:alpha" maskUnits="userSpaceOnUse" x="181" y="12" width="267" height="210">
<path d="M436.323 166.19C436.323 166.19 454.447 188.701 443.711 208.556C432.975 228.412 405.963 218.83 402.961 216.291C399.844 213.866 248.735 89.8853 248.735 89.8853C248.735 89.8853 238.115 79.3804 218.49 77.1871C195.864 74.6474 181.781 86.0758 181.781 86.0758L265.474 18.0825C265.474 18.0825 291.217 3.88355 322.847 23.8544C354.477 43.8253 447.059 117.821 447.059 117.821L425.703 148.297C425.703 148.297 430.436 156.493 436.323 166.19Z" fill="white" stroke="#262626" stroke-width="0.577193" stroke-miterlimit="10"/>
</mask>
<g mask="url(#mask0_10_2)">
<g clip-path="url(#clip1_10_2)">
<path d="M332.407 70.3743L302.534 72.9964L297.3 103.806L266.337 107.084L271.57 75.8371L239.516 78.6777L244.749 46.3381L276.803 44.153L307.985 41.9679L313.218 10.7208L343.092 9.19124L348.543 -21.8373L377.327 -22.7113L371.875 7.66167L366.642 37.8162L337.859 39.7828L332.407 70.3743Z" fill="#666666"/>
<path d="M327.175 100.528L322.16 130.683L292.287 134.398L297.302 103.806L327.175 100.528Z" fill="#262626"/>
<path d="M361.41 67.7521L356.176 97.4696L327.175 100.529L332.409 70.3742L361.41 67.7521Z" fill="#262626"/>
<path d="M383.869 94.6289L378.635 123.691L350.942 127.187L356.176 97.4696L383.869 94.6289Z" fill="#262626"/>
<path d="M389.102 65.3481L361.409 67.7517L366.642 37.8157L394.553 35.8491L421.374 33.8826L416.14 62.9445L410.689 91.7879L383.868 94.6286L389.102 65.3481Z" fill="#FF6B00"/>
<path d="M234.283 110.58L266.337 107.084L261.322 138.331L292.285 134.398L287.052 164.771L256.088 169.141L224.034 173.73L229.268 142.264L195.905 146.416L161.234 150.786L166.25 117.791L200.92 114.076L206.154 81.5183L239.516 78.6777L234.283 110.58Z" fill="#FF6B00"/>
<path d="M171.264 84.5771L176.497 51.1449L211.168 48.7413L206.153 81.5179L171.264 84.5771Z" fill="#262626"/>
<path d="M185.875 210.221L190.89 178.537L224.035 173.73L219.019 204.977L185.875 210.221Z" fill="#262626"/>
<path d="M322.159 130.684L350.942 127.188L345.709 156.469L340.476 185.531L311.692 190.119L282.037 194.927L287.052 164.772L316.926 160.62L322.159 130.684Z" fill="#262626"/>
<path d="M400.441 148.602L373.402 152.535L378.636 123.692L405.456 120.195L400.441 148.602Z" fill="#262626"/>
<path d="M436.855 88.9479L431.622 117.136L405.455 120.195L410.688 91.7885L436.855 88.9479Z" fill="#262626"/>
<path d="M211.169 48.7426L216.402 15.7474L249.983 13.9993L244.75 46.339L211.169 48.7426Z" fill="#262626"/>
</g>
</g>
<path d="M426.313 162.075L406.688 182.046L439.588 214.023C439.588 213.907 457.481 192.089 426.313 162.075Z" fill="#262626"/>
<path d="M416.155 154.111L466.948 93.8519C466.948 93.8519 486.457 114.746 490.843 127.445C496.731 144.529 488.535 154.803 488.535 154.803L439.589 213.908C439.589 213.908 448.016 207.559 438.665 182.971C429.776 159.536 416.155 154.111 416.155 154.111Z" fill="white" stroke="#262626" stroke-width="0.577193" stroke-miterlimit="10"/>
<path d="M254.772 73.3029C254.772 73.3029 226.489 57.4878 205.133 67.5309L250.039 30.8214L284.555 37.8632L254.772 73.3029Z" fill="#262626"/>
<path d="M329.344 53.4479L260.196 0.346147L214.482 40.6342L283.746 96.7374L329.344 53.4479Z" fill="white" stroke="#262626" stroke-width="0.577193" stroke-miterlimit="10"/>
<path d="M65.1064 205.712L78.4973 245.307H14.8906L0.345288 205.712H65.1064Z" fill="white" stroke="#262626" stroke-width="0.577193" stroke-miterlimit="10"/>
<path d="M113.013 205.712C113.013 205.712 115.437 202.941 108.973 190.589C102.508 178.122 84.6151 161.499 84.6151 161.499C84.6151 161.499 77.3424 154.226 76.0726 152.956L128.713 190.935L113.013 205.712Z" fill="#262626"/>
<circle cx="8.79177" cy="8.79177" r="8.51703" transform="matrix(-1 0 0 1 47.8192 217.596)" fill="white" stroke="#262626" stroke-width="0.549486"/>
</g>
<defs>
<clipPath id="clip0_10_2">
<rect width="493.269" height="258.698" fill="white" transform="matrix(-1 0 0 1 493.269 0)"/>
</clipPath>
<clipPath id="clip1_10_2">
<rect width="275.621" height="232.933" fill="white" transform="matrix(1 0 0 -1 161.233 210.221)"/>
</clipPath>
</defs>
</svg>
