<svg width="1171" height="1009" viewBox="0 0 1171 1009" fill="none" xmlns="http://www.w3.org/2000/svg">
<path d="M765.232 215.196L820.166 304.616C820.166 304.616 787.059 320.641 740.225 356.36C700.436 386.839 650.053 444.362 650.053 444.362L556.727 283.674C556.727 283.674 598.41 234.316 660.346 192.767C717.615 154.155 729.531 156.605 729.531 156.605L765.232 215.196Z" fill="white" stroke="#262626" stroke-width="1.22338" stroke-miterlimit="10"/>
<path d="M576.562 262.287L658.843 406.86C658.843 406.86 686.333 376.503 716.69 350.556C769.071 306.177 809.348 287.342 809.348 287.342L729.206 156.421C729.531 156.605 656.314 175.256 576.562 262.287Z" fill="#262626"/>
<path d="M988.333 239.922C988.333 239.922 944.487 206.326 853.631 239.455C762.775 272.583 664.105 361.57 664.105 361.57L572.827 203.328C572.827 203.328 697.379 98.948 781.098 82.591C848.939 69.2655 884.455 87.6376 884.455 87.6376L988.333 239.922Z" fill="white" stroke="#262626" stroke-width="1.22338" stroke-miterlimit="10"/>
<path d="M967.783 169.736L858.314 401.702L552.205 363.275" stroke="#FF6B00" stroke-width="1.22338" stroke-miterlimit="10"/>
<path d="M551.186 490.12L718.662 443.699L741.721 526.887L574.244 573.309L551.186 490.12Z" fill="white" stroke="#FF6B00" stroke-width="1.22338" stroke-miterlimit="10"/>
<path d="M466.37 832.776L447.281 838.067C442.292 835.889 437.119 834.035 432.059 831.603C431.409 831.235 430.829 831.122 430.179 830.754L424.115 808.876L457.203 799.704L466.37 832.776Z" fill="white" stroke="#FF6B00" stroke-width="1.22338" stroke-miterlimit="10"/>
<path d="M508.624 856.677L541.712 847.505L532.545 814.433L499.457 823.605L490.29 790.533L523.378 781.361L514.211 748.29L481.123 757.461L448.035 766.632L438.868 733.561L471.956 724.389L462.789 691.317L429.701 700.489L438.868 733.561L405.78 742.732L372.692 751.903L363.525 718.832L330.437 728.003L297.349 737.175L306.516 770.246L315.683 803.318L282.595 812.49L273.428 779.418L258.666 783.51L243.223 560.69C243.223 560.69 265.144 528.041 324.042 525.96C412.263 522.875 455.562 570.319 528.572 586.517C574.455 596.81 584.634 576.182 584.634 576.182L614.405 767.636C614.405 767.636 691.198 751.008 735.046 802.409C761.066 833.001 721.954 864.936 681.485 876.153C639.234 887.864 589.263 880.622 509.259 858.966L508.624 856.677V856.677Z" fill="white" stroke="#FF6B00" stroke-width="1.22338" stroke-miterlimit="10"/>
<path d="M508.625 856.676L504.553 857.805C493.259 854.635 481.824 850.956 470.249 846.768L466.37 832.776L499.458 823.605L508.625 856.676Z" fill="white" stroke="#FF6B00" stroke-width="1.22338" stroke-miterlimit="10"/>
<path d="M424.115 808.876L391.79 817.835C391.536 817.906 391.211 817.722 390.956 817.793L381.86 784.975L414.948 775.804L424.115 808.876Z" fill="white" stroke="#FF6B00" stroke-width="1.22338" stroke-miterlimit="10"/>
<path d="M354.131 813.481C341.252 813.49 329.955 815.251 319.703 817.819L315.684 803.318L348.772 794.147L354.131 813.481Z" fill="white" stroke="#FF6B00" stroke-width="1.22338" stroke-miterlimit="10"/>
<path d="M266.311 852.616L263.765 853.322L261.216 818.416L282.596 812.49L287.955 831.824C277.05 838.956 269.693 847.022 266.311 852.616Z" fill="white" stroke="#FF6B00" stroke-width="1.22338" stroke-miterlimit="10"/>
<path d="M339.605 761.075L372.693 751.903L381.86 784.975L348.772 794.147L339.605 761.075Z" fill="white" stroke="#FF6B00" stroke-width="1.22338" stroke-miterlimit="10"/>
<path d="M555.94 589.34L586.405 820.872C586.405 820.872 641.864 781.666 716.036 793.158L674.722 570.935C674.722 570.935 639.495 543.717 584.959 576.366C584.959 576.366 573.71 590.168 555.94 589.34Z" fill="#262626"/>
<path d="M584.96 576.365L577.928 521.334C577.928 521.334 660.077 506.234 700.378 556.701L742.39 814.07C742.39 814.07 738.061 797.463 688.406 782.463C658.511 773.491 617.49 785.683 617.49 785.683L584.96 576.365Z" fill="white" stroke="#FF6B00" stroke-width="1.22338" stroke-miterlimit="10"/>
<path d="M382.666 530.804C382.666 530.804 350.656 514.2 310.128 528.173C269.601 542.146 171.793 632.264 171.793 632.264L168.719 807.071C168.719 807.071 288.095 705.77 327.417 697.336C364.887 689.141 396.827 705.491 396.827 705.491L382.666 530.804Z" fill="#262626"/>
<path d="M351.452 487.407C351.452 487.407 321.232 478.251 278.914 484.776C240.809 490.681 140.578 588.867 140.578 588.867L137.505 763.674C137.505 763.674 258.079 666.697 296.202 653.939C334.326 641.18 364.91 654.618 364.91 654.618L351.452 487.407Z" fill="white" stroke="#FF6B00" stroke-width="1.22338" stroke-miterlimit="10"/>
<path d="M250.984 497.722L251.553 575.913L175.381 637.296L175.818 555.814L231.438 510.263L250.984 497.722Z" fill="#262626"/>
<path d="M338.593 832.581L424.113 808.876L439.133 863.063L353.613 886.768L338.593 832.581Z" fill="white" stroke="#FF6B00" stroke-width="1.22338" stroke-miterlimit="10"/>
<path d="M417.226 840.671L416.85 839.314L404.383 836.778L404.985 838.949L414.484 840.663L414.379 840.547L414.473 840.886L414.503 840.731L407.242 847.091L407.844 849.263L417.226 840.671ZM392.57 834.499L403.933 853.744L405.765 853.237L394.402 833.991L392.57 834.499ZM384.229 856.393L385.178 854.742L378.31 850.855L392.237 846.995L391.719 845.129L377.792 848.989L381.684 842.138L380.016 841.194L374.523 850.9L384.229 856.393ZM359.256 856.739L371.723 859.275L371.121 857.104L361.622 855.389L361.727 855.506L361.633 855.167L361.603 855.321L368.864 848.961L368.262 846.79L358.88 855.382L359.256 856.739Z" fill="black"/>
<path d="M231.322 493.036L231.636 571.298L155.464 632.681L155.925 557.218L231.322 493.036Z" fill="white" stroke="#262626" stroke-width="1.22338" stroke-miterlimit="10"/>
<path d="M340.677 428.756L333.757 355.339L410 294.21L416.074 364.574L340.677 428.756Z" fill="white" stroke="#262626" stroke-width="1.22338" stroke-miterlimit="10"/>
<path d="M374.927 374.335C370.148 375.66 365.2 372.861 363.876 368.084C362.552 363.307 365.353 358.361 370.132 357.036C374.912 355.711 379.859 358.51 381.183 363.287C382.508 368.064 379.707 373.011 374.927 374.335Z" fill="white" stroke="#262626" stroke-width="1.22338" stroke-miterlimit="10"/>
<path d="M195.279 585.484L195.274 613.154L168.398 634.849L168.685 608.197L195.279 585.484Z" fill="white" stroke="#262626" stroke-width="1.22338" stroke-miterlimit="10"/>
<path d="M292.757 626.677L292.981 670.994L251.3 697.614L251.499 654.824L292.757 626.677Z" fill="white" stroke="#262626" stroke-width="1.22338" stroke-miterlimit="10"/>
<path d="M432.699 656.922C414.284 662.026 395.221 651.243 390.119 632.838C385.017 614.432 395.809 595.374 414.224 590.269C432.639 585.165 451.702 595.948 456.804 614.354C461.906 632.759 451.114 651.818 432.699 656.922Z" fill="#262626"/>
<path d="M423.931 642.094C405.516 647.198 386.452 636.415 381.35 618.01C376.249 599.604 387.041 580.545 405.455 575.441C423.87 570.337 442.934 581.12 448.036 599.525C453.137 617.931 442.345 636.99 423.931 642.094Z" fill="white" stroke="#262626" stroke-width="1.22338" stroke-miterlimit="10"/>
<path d="M414.691 608.768L547.545 374.155" stroke="#FF6B00" stroke-width="1.22338" stroke-miterlimit="10"/>
<path d="M561.443 396.601C543.028 401.705 523.965 390.922 518.863 372.517C513.761 354.111 524.553 335.053 542.968 329.948C561.383 324.844 580.446 335.627 585.548 354.033C590.65 372.438 579.858 391.497 561.443 396.601Z" fill="white" stroke="#FF6B00" stroke-width="1.22338" stroke-miterlimit="10"/>
<path d="M539.474 331.191L545.096 317.853L577.528 358.722L552.953 405.529L546.922 397.613" stroke="#FF6B00" stroke-width="1.22338" stroke-miterlimit="10"/>
<path d="M710.361 478.809L709.88 477.074L693.943 473.833L694.713 476.608L706.856 478.8L706.721 478.651L706.841 479.084L706.88 478.887L697.598 487.017L698.367 489.793L710.361 478.809ZM681.642 495.176L682.304 497.562L696.182 493.715L695.521 491.329L681.642 495.176ZM667.837 499.003L668.498 501.388L682.377 497.541L681.716 495.156L667.837 499.003ZM654.031 502.83L654.693 505.215L668.571 501.368L667.91 498.983L654.031 502.83ZM637.425 482.4L651.951 507.002L654.293 506.353L639.767 481.75L637.425 482.4ZM629.342 509.673L630.004 512.058L643.882 508.211L643.221 505.826L629.342 509.673ZM610.164 506.582L626.101 509.824L625.331 507.049L613.188 504.857L613.323 505.006L613.203 504.572L613.164 504.77L622.446 496.639L621.677 493.864L609.683 504.848L610.164 506.582Z" fill="black"/>
<path d="M860.527 410.677C854.763 412.275 848.797 408.9 847.2 403.139C845.603 397.379 848.981 391.414 854.745 389.816C860.508 388.219 866.474 391.594 868.071 397.354C869.668 403.115 866.29 409.079 860.527 410.677Z" fill="white" stroke="#F55800" stroke-width="1.22338" stroke-miterlimit="10"/>
<path d="M977.584 205.098C954.671 211.449 930.95 198.032 924.602 175.13C918.254 152.229 931.683 128.515 954.596 122.163C977.508 115.812 1001.23 129.229 1007.58 152.131C1013.92 175.033 1000.5 198.747 977.584 205.098Z" fill="white" stroke="#F55800" stroke-width="1.22338" stroke-miterlimit="10"/>
<path d="M417.121 613.574C413.747 614.509 410.254 612.534 409.32 609.162C408.385 605.789 410.362 602.298 413.736 601.363C417.109 600.428 420.602 602.403 421.537 605.775C422.471 609.147 420.494 612.639 417.121 613.574Z" fill="white" stroke="#FF6B00" stroke-width="1.22338" stroke-miterlimit="10"/>
<path d="M930.621 139.493C930.621 139.493 936.286 165.865 960.989 179.838C985.692 193.81 1003.17 185.678 1003.17 185.678" fill="white"/>
<path d="M930.621 139.493C930.621 139.493 936.286 165.865 960.989 179.838C985.692 193.81 1003.17 185.678 1003.17 185.678" stroke="#F55800" stroke-width="1.22338" stroke-miterlimit="10"/>
<path d="M660.568 259.821L694.592 247.103L690.503 209.61L725.588 195.776L729.817 233.778L766.316 220.1L770.643 259.444L733.934 272.359L698.242 284.992L702.217 323.064L667.841 334.51L671.491 372.399L638.176 382.729L634.737 345.604L631.115 308.803L664.077 297.201L660.568 259.821Z" fill="#666666"/>
<path d="M656.945 223.021L653.068 186.291L686.739 172.301L690.503 209.61L656.945 223.021Z" fill="#262626"/>
<path d="M627.562 272.258L624.081 235.966L656.945 223.021L660.568 259.822L627.562 272.258Z" fill="#262626"/>
<path d="M592.673 248.233L589.403 212.705L620.599 199.675L624.081 235.966L592.673 248.233Z" fill="#262626"/>
<path d="M596.014 284.016L627.563 272.257L631.115 308.803L599.171 320.123L568.499 331.091L565.229 295.562L562.029 260.288L592.674 248.233L596.014 284.016Z" fill="#FF6B00"/>
<path d="M762.129 181.265L725.588 195.777L721.612 157.704L686.739 172.302L683.046 135.247L717.778 120.141L753.712 104.428L757.758 142.754L795.36 127.127L834.419 110.821L839.213 150.858L799.943 166.4L804.341 205.999L766.315 220.1L762.129 181.265Z" fill="#F55800"/>
<path d="M844.077 191.149L848.758 231.766L809.064 245.782L804.341 205.999L844.077 191.149Z" fill="#262626"/>
<path d="M786.479 49.5964L790.85 88.107L753.713 104.427L749.484 66.4256L786.479 49.5964Z" fill="#262626"/>
<path d="M653.069 186.292L620.6 199.674L617.26 163.892L613.99 128.363L645.851 113.779L679.17 98.5169L683.047 135.247L649.517 149.746L653.069 186.292Z" fill="#262626"/>
<path d="M555.912 190.758L586.204 177.431L589.403 212.705L558.971 225.523L555.912 190.758Z" fill="#262626"/>
<path d="M532.657 271.991L529.669 237.48L558.97 225.523L562.028 260.288L532.657 271.991Z" fill="#262626"/>
<path d="M809.064 245.782L813.603 285.889L774.971 298.789L770.643 259.445L809.064 245.782Z" fill="#262626"/>
<path d="M372.528 365.686L935.486 531.803" stroke="#FF6B00" stroke-width="1.22338" stroke-miterlimit="10"/>
</svg>
