<svg width="475" height="409" viewBox="0 0 475 409" fill="none" xmlns="http://www.w3.org/2000/svg">
<path d="M310.393 87.2856L332.676 123.556C332.676 123.556 319.247 130.056 300.25 144.545C284.111 156.908 263.675 180.24 263.675 180.24L225.82 115.062C225.82 115.062 242.727 95.0409 267.85 78.1878C291.079 62.5263 295.913 63.52 295.913 63.52L310.393 87.2856Z" fill="white" stroke="#262626" stroke-width="0.496227" stroke-miterlimit="10"/>
<path d="M233.865 106.387L267.24 165.029C267.24 165.029 278.391 152.715 290.704 142.191C311.951 124.19 328.288 116.55 328.288 116.55L295.781 63.4458C295.913 63.5204 266.214 71.0855 233.865 106.387Z" fill="#262626"/>
<path d="M400.889 97.3153C400.889 97.3153 383.105 83.6884 346.252 97.1258C309.398 110.563 269.376 146.658 269.376 146.658L232.352 82.472C232.352 82.472 282.873 40.1336 316.831 33.4988C344.349 28.0937 358.754 35.5458 358.754 35.5458L400.889 97.3153Z" fill="white" stroke="#262626" stroke-width="0.496227" stroke-miterlimit="10"/>
<path d="M392.552 68.8441L348.149 162.934L223.985 147.347" stroke="#FF6B00" stroke-width="0.496227" stroke-miterlimit="10"/>
<path d="M223.573 198.801L291.505 179.971L300.858 213.714L232.926 232.544L223.573 198.801Z" fill="white" stroke="#FF6B00" stroke-width="0.496227" stroke-miterlimit="10"/>
<path d="M189.168 337.793L181.425 339.939C179.401 339.055 177.303 338.304 175.251 337.317C174.987 337.168 174.752 337.122 174.488 336.973L172.028 328.098L185.45 324.378L189.168 337.793Z" fill="white" stroke="#FF6B00" stroke-width="0.496227" stroke-miterlimit="10"/>
<path d="M206.306 347.486L219.727 343.766L216.009 330.351L202.588 334.071L198.87 320.657L212.291 316.937L208.572 303.522L195.151 307.242L181.73 310.962L178.012 297.548L191.433 293.828L187.715 280.413L174.293 284.133L178.012 297.548L164.591 301.268L151.169 304.988L147.451 291.573L134.03 295.293L120.609 299.014L124.327 312.428L128.045 325.843L114.624 329.563L110.906 316.148L104.918 317.808L98.6542 227.428C98.6542 227.428 107.546 214.185 131.436 213.341C167.22 212.089 184.783 231.334 214.397 237.904C233.009 242.079 237.137 233.712 237.137 233.712L249.213 311.369C249.213 311.369 280.362 304.625 298.147 325.474C308.702 337.883 292.837 350.836 276.422 355.386C259.284 360.136 239.015 357.199 206.564 348.415L206.306 347.486V347.486Z" fill="white" stroke="#FF6B00" stroke-width="0.496227" stroke-miterlimit="10"/>
<path d="M206.307 347.488L204.655 347.945C200.074 346.66 195.436 345.167 190.741 343.469L189.168 337.793L202.589 334.073L206.307 347.488Z" fill="white" stroke="#FF6B00" stroke-width="0.496227" stroke-miterlimit="10"/>
<path d="M172.029 328.096L158.917 331.731C158.814 331.759 158.682 331.685 158.579 331.713L154.889 318.402L168.31 314.682L172.029 328.096Z" fill="white" stroke="#FF6B00" stroke-width="0.496227" stroke-miterlimit="10"/>
<path d="M143.642 329.964C138.418 329.968 133.836 330.682 129.678 331.724L128.047 325.842L141.468 322.122L143.642 329.964Z" fill="white" stroke="#FF6B00" stroke-width="0.496227" stroke-miterlimit="10"/>
<path d="M108.021 345.838L106.989 346.124L105.954 331.966L114.627 329.562L116.8 337.404C112.377 340.297 109.393 343.569 108.021 345.838Z" fill="white" stroke="#FF6B00" stroke-width="0.496227" stroke-miterlimit="10"/>
<path d="M137.748 308.709L151.169 304.989L154.888 318.403L141.467 322.123L137.748 308.709Z" fill="white" stroke="#FF6B00" stroke-width="0.496227" stroke-miterlimit="10"/>
<path d="M225.498 239.047L237.855 332.961C237.855 332.961 260.351 317.058 290.436 321.72L273.678 231.582C273.678 231.582 259.39 220.541 237.269 233.784C237.269 233.784 232.706 239.383 225.498 239.047Z" fill="#262626"/>
<path d="M237.271 233.785L234.419 211.464C234.419 211.464 267.741 205.339 284.087 225.809L301.128 330.203C301.128 330.203 299.372 323.467 279.231 317.383C267.105 313.743 250.466 318.689 250.466 318.689L237.271 233.785Z" fill="white" stroke="#FF6B00" stroke-width="0.496227" stroke-miterlimit="10"/>
<path d="M155.217 215.303C155.217 215.303 142.233 208.568 125.794 214.236C109.355 219.903 69.6825 256.457 69.6825 256.457L68.4359 327.362C68.4359 327.362 116.857 286.272 132.807 282.851C148.005 279.528 160.961 286.159 160.961 286.159L155.217 215.303Z" fill="#262626"/>
<path d="M142.555 197.701C142.555 197.701 130.298 193.987 113.133 196.634C97.6766 199.029 57.0209 238.855 57.0209 238.855L55.7743 309.76C55.7743 309.76 104.682 270.425 120.145 265.25C135.609 260.074 148.015 265.525 148.015 265.525L142.555 197.701Z" fill="white" stroke="#FF6B00" stroke-width="0.496227" stroke-miterlimit="10"/>
<path d="M101.804 201.885L102.035 233.601L71.1383 258.499L71.3155 225.448L93.876 206.972L101.804 201.885Z" fill="#262626"/>
<path d="M137.34 337.71L172.028 328.095L178.121 350.074L143.432 359.689L137.34 337.71Z" fill="white" stroke="#FF6B00" stroke-width="0.496227" stroke-miterlimit="10"/>
<path d="M169.305 341.246L165.499 344.731L165.255 343.85L168.176 341.292L168.161 341.237L164.339 340.548L164.095 339.667L169.152 340.695L169.305 341.246ZM159.304 338.743L160.047 338.537L164.656 346.343L163.912 346.549L159.304 338.743ZM155.92 347.623L151.983 345.395L154.211 341.458L154.888 341.841L153.309 344.62L158.958 343.054L159.168 343.811L153.519 345.377L156.305 346.953L155.92 347.623ZM145.791 347.764L145.638 347.213L149.444 343.728L149.688 344.609L146.766 347.167L146.782 347.222L150.603 347.911L150.847 348.792L145.791 347.764Z" fill="black"/>
<path d="M93.8278 199.986L93.9554 231.73L63.0584 256.628L63.2454 226.019L93.8278 199.986Z" fill="white" stroke="#262626" stroke-width="0.496227" stroke-miterlimit="10"/>
<path d="M138.185 173.911L135.378 144.132L166.303 119.337L168.767 147.878L138.185 173.911Z" fill="white" stroke="#262626" stroke-width="0.496227" stroke-miterlimit="10"/>
<path d="M152.077 151.839C150.138 152.376 148.131 151.241 147.594 149.304C147.057 147.366 148.193 145.359 150.132 144.822C152.07 144.285 154.077 145.42 154.614 147.358C155.151 149.295 154.015 151.302 152.077 151.839Z" fill="white" stroke="#262626" stroke-width="0.496227" stroke-miterlimit="10"/>
<path d="M79.2071 237.486L79.2052 248.709L68.3037 257.509L68.42 246.699L79.2071 237.486Z" fill="white" stroke="#262626" stroke-width="0.496227" stroke-miterlimit="10"/>
<path d="M118.746 254.194L118.837 272.17L101.93 282.967L102.01 265.611L118.746 254.194Z" fill="white" stroke="#262626" stroke-width="0.496227" stroke-miterlimit="10"/>
<path d="M175.511 266.461C168.042 268.531 160.309 264.157 158.24 256.692C156.17 249.226 160.548 241.495 168.017 239.425C175.487 237.355 183.219 241.728 185.289 249.194C187.358 256.66 182.98 264.39 175.511 266.461Z" fill="#262626"/>
<path d="M171.953 260.446C164.483 262.517 156.751 258.143 154.681 250.677C152.612 243.211 156.99 235.481 164.459 233.411C171.928 231.34 179.661 235.714 181.73 243.18C183.8 250.645 179.422 258.376 171.953 260.446Z" fill="white" stroke="#262626" stroke-width="0.496227" stroke-miterlimit="10"/>
<path d="M168.207 246.929L222.095 151.765" stroke="#FF6B00" stroke-width="0.496227" stroke-miterlimit="10"/>
<path d="M227.733 160.868C220.263 162.938 212.531 158.565 210.461 151.099C208.392 143.633 212.769 135.903 220.239 133.832C227.708 131.762 235.441 136.136 237.51 143.602C239.579 151.067 235.202 158.798 227.733 160.868Z" fill="white" stroke="#FF6B00" stroke-width="0.496227" stroke-miterlimit="10"/>
<path d="M218.821 134.337L221.101 128.927L234.256 145.504L224.288 164.49L221.842 161.279" stroke="#FF6B00" stroke-width="0.496227" stroke-miterlimit="10"/>
<path d="M288.25 194.624L283.385 199.079L283.073 197.953L286.807 194.683L286.788 194.613L281.902 193.731L281.59 192.605L288.055 193.92L288.25 194.624ZM276.601 201.263L282.23 199.702L282.498 200.67L276.869 202.23L276.601 201.263ZM271.001 202.815L276.63 201.255L276.899 202.222L271.269 203.783L271.001 202.815ZM265.401 204.367L271.031 202.807L271.299 203.774L265.669 205.335L265.401 204.367ZM258.665 196.08L259.615 195.817L265.507 205.796L264.557 206.06L258.665 196.08ZM255.387 207.143L261.016 205.583L261.284 206.55L255.655 208.111L255.387 207.143ZM247.607 205.889L247.412 205.186L252.277 200.73L252.589 201.856L248.855 205.127L248.874 205.197L253.76 206.078L254.072 207.204L247.607 205.889Z" fill="black"/>
<path d="M349.048 166.575C346.71 167.223 344.29 165.854 343.642 163.518C342.995 161.181 344.365 158.762 346.702 158.114C349.04 157.466 351.46 158.835 352.108 161.171C352.756 163.508 351.385 165.927 349.048 166.575Z" fill="white" stroke="#F55800" stroke-width="0.496227" stroke-miterlimit="10"/>
<path d="M396.528 83.1895C387.234 85.7656 377.613 80.3234 375.038 71.0341C372.463 61.7447 377.91 52.1258 387.204 49.5497C396.498 46.9736 406.119 52.4158 408.694 61.7051C411.269 70.9945 405.822 80.6134 396.528 83.1895Z" fill="white" stroke="#F55800" stroke-width="0.496227" stroke-miterlimit="10"/>
<path d="M169.195 248.873C167.826 249.253 166.41 248.451 166.031 247.084C165.651 245.716 166.453 244.299 167.822 243.92C169.19 243.541 170.607 244.342 170.986 245.71C171.365 247.078 170.563 248.494 169.195 248.873Z" fill="white" stroke="#FF6B00" stroke-width="0.496227" stroke-miterlimit="10"/>
<path d="M377.478 56.5771C377.478 56.5771 379.776 67.2741 389.796 72.9416C399.816 78.6092 406.906 75.3105 406.906 75.3105" fill="white"/>
<path d="M377.478 56.5771C377.478 56.5771 379.776 67.2741 389.796 72.9416C399.816 78.6092 406.906 75.3105 406.906 75.3105" stroke="#F55800" stroke-width="0.496227" stroke-miterlimit="10"/>
<path d="M267.941 105.389L281.741 100.23L280.083 85.0226L294.314 79.4112L296.03 94.8254L310.834 89.2774L312.589 105.236L297.699 110.475L283.222 115.599L284.834 131.042L270.891 135.684L272.371 151.053L258.858 155.243L257.463 140.184L255.994 125.257L269.364 120.551L267.941 105.389Z" fill="#666666"/>
<path d="M266.471 90.4639L264.898 75.5656L278.556 69.891L280.082 85.0243L266.471 90.4639Z" fill="#262626"/>
<path d="M254.551 110.433L253.138 95.7128L266.469 90.4621L267.938 105.389L254.551 110.433Z" fill="#262626"/>
<path d="M240.4 100.691L239.074 86.2798L251.728 80.9945L253.14 95.715L240.4 100.691Z" fill="#262626"/>
<path d="M241.755 115.205L254.552 110.436L255.993 125.26L243.036 129.851L230.594 134.3L229.268 119.889L227.97 105.581L240.4 100.691L241.755 115.205Z" fill="#FF6B00"/>
<path d="M309.134 73.5249L294.312 79.4111L292.7 63.9682L278.554 69.8892L277.056 54.8591L291.144 48.7317L305.72 42.3582L307.361 57.9042L322.613 51.5653L338.456 44.9515L340.401 61.1913L324.472 67.4955L326.256 83.5576L310.832 89.2773L309.134 73.5249Z" fill="#F55800"/>
<path d="M342.373 77.5337L344.272 94.0085L328.171 99.6936L326.255 83.557L342.373 77.5337Z" fill="#262626"/>
<path d="M319.01 20.1179L320.783 35.7386L305.72 42.3584L304.004 26.9442L319.01 20.1179Z" fill="#262626"/>
<path d="M264.895 75.5665L251.725 80.9949L250.37 66.4807L249.044 52.0698L261.968 46.154L275.482 39.9634L277.055 54.8617L263.454 60.7428L264.895 75.5665Z" fill="#262626"/>
<path d="M225.488 77.3763L237.775 71.9705L239.072 86.2783L226.728 91.4777L225.488 77.3763Z" fill="#262626"/>
<path d="M216.056 110.324L214.844 96.326L226.729 91.476L227.97 105.577L216.056 110.324Z" fill="#262626"/>
<path d="M328.172 99.6935L330.013 115.962L314.343 121.194L312.587 105.235L328.172 99.6935Z" fill="#262626"/>
<path d="M151.107 148.327L379.454 215.707" stroke="#FF6B00" stroke-width="0.496227" stroke-miterlimit="10"/>
<path d="M387.164 191.788L387.32 223.635L356.423 248.534L356.61 217.925L387.164 191.788Z" fill="white" stroke="#666666" stroke-width="0.496227" stroke-miterlimit="10"/>
</svg>
