<svg width="674" height="354" viewBox="0 0 674 354" fill="none" xmlns="http://www.w3.org/2000/svg">
<path d="M89.3927 329.835H160.611V335.35H89.3927V329.835Z" fill="white" stroke="#262626" stroke-width="0.787818" stroke-miterlimit="10"/>
<path d="M132.565 302.419C132.565 302.419 123.427 310.455 111.609 306.831C99.7922 303.207 63.2374 291.39 63.2374 291.39L74.582 281.306C74.582 281.306 113.185 281.306 131.62 279.415L141.074 288.238L132.565 302.419Z" fill="white" stroke="#262626" stroke-width="0.787818" stroke-miterlimit="10"/>
<path d="M85.6113 195.434C85.6113 195.434 75.8423 209.772 90.8108 229.467C105.779 249.163 127.838 275.949 127.838 275.949C127.838 275.949 138.868 293.281 132.565 302.262L176.21 260.822L85.6113 195.434Z" fill="white" stroke="#262626" stroke-width="0.787818" stroke-miterlimit="10"/>
<path d="M245.381 185.349L335.822 287.923C335.822 287.923 364.184 321.012 353.154 339.919C342.125 358.827 317.23 354.415 300.528 347.167C283.826 339.919 85.6112 195.591 85.6112 195.591L248.69 55.9897L326.368 114.446L245.381 185.349Z" fill="white" stroke="#262626" stroke-width="0.787818" stroke-miterlimit="10"/>
<path d="M199.215 147.849L164.236 127.051L113.185 171.956L146.431 197.797L199.215 147.849Z" fill="#FF6B00" stroke="#262626" stroke-width="0.787818" stroke-miterlimit="10"/>
<path d="M220.644 147.849L133.669 88.6055L80.885 135.087L167.86 197.797L220.644 147.849Z" fill="white" stroke="#262626" stroke-width="0.787818" stroke-miterlimit="10"/>
<path d="M155.254 120.276L136.032 136.505L187.713 178.732L221.589 146.746L155.254 120.276Z" fill="#262626"/>
<path d="M318.963 328.89L171.956 210.56L205.044 177.629L318.963 328.89Z" fill="#262626"/>
<path d="M371.589 278.785L189.76 66.8616L136.819 113.343L318.963 328.89L371.589 278.785Z" fill="white" stroke="#262626" stroke-width="0.787818" stroke-miterlimit="10"/>
<path d="M248.69 118.227L362.923 25.4224C365.287 49.8447 375.686 74.5822 375.686 74.5822L486.926 179.52L448.638 212.765L451.159 214.814C469.436 233.091 451.159 255.15 451.159 255.15L348.585 345.276C361.505 327.472 345.906 302.262 345.906 302.262L245.066 185.192C215.444 149.425 248.69 118.227 248.69 118.227Z" fill="white" stroke="#262626" stroke-width="0.787818" stroke-miterlimit="10"/>
<path d="M435.56 269.016C435.56 269.016 445.014 249.95 429.73 231.831C414.604 213.711 276.736 104.519 276.736 104.519L295.328 86.0842L451.474 214.971C451.474 214.971 466.758 230.097 455.413 249.005L451.474 255.307L435.56 269.016Z" fill="#FF6B00" stroke="#262626" stroke-width="0.787818" stroke-miterlimit="10"/>
<path d="M596.117 227.734C596.117 227.734 620.855 258.459 606.201 285.56C591.548 312.661 554.678 299.583 550.581 296.117C546.327 292.808 340.076 123.585 340.076 123.585C340.076 123.585 325.581 109.246 298.795 106.253C267.912 102.786 248.69 118.385 248.69 118.385L362.923 25.5799C362.923 25.5799 398.06 6.19963 441.232 33.4581C484.405 60.7166 610.771 161.715 610.771 161.715L581.621 203.312C581.621 203.312 588.081 214.499 596.117 227.734Z" fill="white" stroke="#262626" stroke-width="0.787818" stroke-miterlimit="10"/>
<mask id="mask0_31_2" style="mask-type:alpha" maskUnits="userSpaceOnUse" x="248" y="18" width="364" height="285">
<path d="M596.072 227.362C596.072 227.362 620.809 258.087 606.156 285.188C591.502 312.289 554.633 299.211 550.536 295.744C546.282 292.436 340.031 123.212 340.031 123.212C340.031 123.212 325.535 108.874 298.749 105.88C267.867 102.414 248.644 118.013 248.644 118.013L362.878 25.2078C362.878 25.2078 398.014 5.82743 441.187 33.0859C484.359 60.3444 610.725 161.343 610.725 161.343L581.576 202.939C581.576 202.939 588.036 214.126 596.072 227.362Z" fill="white" stroke="#262626" stroke-width="0.787818" stroke-miterlimit="10"/>
</mask>
<g mask="url(#mask0_31_2)">
<g clip-path="url(#clip0_31_2)">
<path d="M454.233 96.5811L413.458 100.16L406.315 142.213L364.052 146.687L371.195 104.037L327.444 107.914L334.587 63.7738L378.338 60.7913L420.899 57.8088L428.042 15.1593L468.816 13.0716L476.257 -29.2797L515.544 -30.4727L508.103 10.9838L500.96 52.1421L461.673 54.8263L454.233 96.5811Z" fill="#666666"/>
<path d="M447.091 137.739L440.245 178.898L399.47 183.968L406.316 142.213L447.091 137.739Z" fill="#262626"/>
<path d="M493.818 93.002L486.675 133.564L447.09 137.739L454.233 96.581L493.818 93.002Z" fill="#262626"/>
<path d="M524.472 129.687L517.329 169.354L479.531 174.126L486.674 133.564L524.472 129.687Z" fill="#262626"/>
<path d="M531.616 89.7213L493.817 93.002L500.96 52.142L539.056 49.4578L575.664 46.7735L568.521 86.4405L561.081 125.809L524.473 129.687L531.616 89.7213Z" fill="#FF6B00"/>
<path d="M320.301 151.459L364.052 146.687L357.207 189.336L399.47 183.968L392.327 225.424L350.064 231.389L306.313 237.653L313.456 194.705L267.919 200.372L220.597 206.337L227.442 161.301L274.765 156.231L281.908 111.792L327.444 107.915L320.301 151.459Z" fill="#FF6B00"/>
<path d="M234.287 115.967L241.43 70.3353L288.753 67.0546L281.908 111.792L234.287 115.967Z" fill="#262626"/>
<path d="M254.228 287.46L261.074 244.214L306.313 237.653L299.468 280.302L254.228 287.46Z" fill="#262626"/>
<path d="M440.244 178.898L479.531 174.126L472.388 214.091L465.245 253.758L425.958 260.021L385.481 266.583L392.326 225.424L433.101 219.758L440.244 178.898Z" fill="#262626"/>
<path d="M547.092 203.354L510.186 208.722L517.329 169.354L553.937 164.582L547.092 203.354Z" fill="#262626"/>
<path d="M596.796 121.932L589.653 160.406L553.938 164.582L561.081 125.81L596.796 121.932Z" fill="#262626"/>
<path d="M288.753 67.0544L295.896 22.019L341.73 19.633L334.587 63.7737L288.753 67.0544Z" fill="#262626"/>
</g>
</g>
<path d="M582.409 221.747L555.624 249.005L600.529 292.65C600.529 292.493 624.952 262.713 582.409 221.747Z" fill="#262626"/>
<path d="M568.544 210.875L637.872 128.626C637.872 128.626 664.5 157.145 670.487 174.477C678.523 197.797 667.336 211.82 667.336 211.82L600.529 292.493C600.529 292.493 612.031 283.827 599.269 250.266C587.136 218.28 568.544 210.875 568.544 210.875Z" fill="white" stroke="#262626" stroke-width="0.787818" stroke-miterlimit="10"/>
<path d="M348.27 100.58C348.27 100.58 309.667 78.994 280.518 92.702L341.81 42.5968L388.921 52.2082L348.27 100.58Z" fill="#262626"/>
<path d="M450.055 73.4793L355.674 1L293.279 55.9897L387.817 132.566L450.055 73.4793Z" fill="white" stroke="#262626" stroke-width="0.787818" stroke-miterlimit="10"/>
<path d="M89.3934 281.306L107.671 335.35H20.8532L1.00021 281.306H89.3934Z" fill="white" stroke="#262626" stroke-width="0.787818" stroke-miterlimit="10"/>
<path d="M154.782 281.306C154.782 281.306 158.091 277.524 149.267 260.665C140.443 243.648 116.021 220.959 116.021 220.959C116.021 220.959 106.095 211.032 104.361 209.299L176.21 261.137L154.782 281.306Z" fill="#262626"/>
<circle cx="12" cy="12" r="11.625" transform="matrix(-1 0 0 1 65.7963 297.527)" fill="white" stroke="#262626" stroke-width="0.75"/>
<defs>
<clipPath id="clip0_31_2">
<rect width="376.199" height="317.933" fill="white" transform="matrix(1 0 0 -1 220.597 287.46)"/>
</clipPath>
</defs>
</svg>
